<?xml version="1.0" encoding="UTF-8"?>
<svg xmlns="http://www.w3.org/2000/svg" width="800" height="600" viewBox="0 0 800 600">
<style>
text { font-family: Arial, Helvetica, sans-serif; fill: #222; }
.axis { stroke: #333; stroke-width: 1.2; }
.grid { stroke: #d8d8d8; stroke-width: 0.8; }
.zero { stroke: #444; stroke-width: 1.3; }
.point { fill: #2b6f8f; fill-opacity: 0.82; }
</style>
<rect x="0" y="0" width="800" height="600" fill="white"/>
<text x="400.0" y="28" text-anchor="middle" font-size="18">Residuals vs fitted values: wb</text>
<line class="grid" x1="90.00" y1="55" x2="90.00" y2="520"/>
<line class="axis" x1="90.00" y1="520" x2="90.00" y2="525"/>
<text x="90.00" y="544" text-anchor="middle" font-size="12">0.00</text>
<line class="grid" x1="258.75" y1="55" x2="258.75" y2="520"/>
<line class="axis" x1="258.75" y1="520" x2="258.75" y2="525"/>
<text x="258.75" y="544" text-anchor="middle" font-size="12">0.30</text>
<line class="grid" x1="427.50" y1="55" x2="427.50" y2="520"/>
<line class="axis" x1="427.50" y1="520" x2="427.50" y2="525"/>
<text x="427.50" y="544" text-anchor="middle" font-size="12">0.60</text>
<line class="grid" x1="596.25" y1="55" x2="596.25" y2="520"/>
<line class="axis" x1="596.25" y1="520" x2="596.25" y2="525"/>
<text x="596.25" y="544" text-anchor="middle" font-size="12">0.90</text>
<line class="grid" x1="765.00" y1="55" x2="765.00" y2="520"/>
<line class="axis" x1="765.00" y1="520" x2="765.00" y2="525"/>
<text x="765.00" y="544" text-anchor="middle" font-size="12">1.20</text>
<line class="grid" x1="90" y1="520.00" x2="765" y2="520.00"/>
<line class="axis" x1="85" y1="520.00" x2="90" y2="520.00"/>
<text x="80" y="524.00" text-anchor="end" font-size="12">-0.50</text>
<line class="grid" x1="90" y1="403.75" x2="765" y2="403.75"/>
<line class="axis" x1="85" y1="403.75" x2="90" y2="403.75"/>
<text x="80" y="407.75" text-anchor="end" font-size="12">-0.25</text>
<line class="grid" x1="90" y1="287.50" x2="765" y2="287.50"/>
<line class="axis" x1="85" y1="287.50" x2="90" y2="287.50"/>
<text x="80" y="291.50" text-anchor="end" font-size="12">0.00</text>
<line class="grid" x1="90" y1="171.25" x2="765" y2="171.25"/>
<line class="axis" x1="85" y1="171.25" x2="90" y2="171.25"/>
<text x="80" y="175.25" text-anchor="end" font-size="12">0.25</text>
<line class="grid" x1="90" y1="55.00" x2="765" y2="55.00"/>
<line class="axis" x1="85" y1="55.00" x2="90" y2="55.00"/>
<text x="80" y="59.00" text-anchor="end" font-size="12">0.50</text>
<line class="zero" x1="90" y1="287.50" x2="765" y2="287.50"/>
<line class="axis" x1="90" y1="55" x2="90" y2="520"/>
<line class="axis" x1="90" y1="520" x2="765" y2="520"/>
<text x="427.5" y="572" text-anchor="middle" font-size="14">Prediction (Approval rate)</text>
<text x="22" y="287.5" text-anchor="middle" font-size="14" transform="rotate(-90 22 287.5)">Prediction delta</text>
<circle class="point" cx="218.85" cy="328.52" r="3.2"><title>Afghanistan</title></circle>
<circle class="point" cx="412.70" cy="360.51" r="3.2"><title>Algeria</title></circle>
<circle class="point" cx="538.16" cy="259.01" r="3.2"><title>Argentina</title></circle>
<circle class="point" cx="661.28" cy="294.75" r="3.2"><title>Austria</title></circle>
<circle class="point" cx="430.43" cy="309.68" r="3.2"><title>Bangladesh</title></circle>
<circle class="point" cx="463.43" cy="247.45" r="3.2"><title>Belarus</title></circle>
<circle class="point" cx="622.16" cy="264.92" r="3.2"><title>Belgium</title></circle>
<circle class="point" cx="420.71" cy="267.10" r="3.2"><title>Bhutan</title></circle>
<circle class="point" cx="499.51" cy="241.90" r="3.2"><title>Bolivia</title></circle>
<circle class="point" cx="429.72" cy="219.58" r="3.2"><title>Botswana</title></circle>
<circle class="point" cx="516.34" cy="225.30" r="3.2"><title>Brazil</title></circle>
<circle class="point" cx="700.79" cy="327.42" r="3.2"><title>Brunei Darussalam</title></circle>
<circle class="point" cx="530.43" cy="264.09" r="3.2"><title>Bulgaria</title></circle>
<circle class="point" cx="549.99" cy="241.95" r="3.2"><title>Cambodia</title></circle>
<circle class="point" cx="316.95" cy="410.97" r="3.2"><title>Cameroon</title></circle>
<circle class="point" cx="644.75" cy="287.73" r="3.2"><title>Canada</title></circle>
<circle class="point" cx="165.01" cy="349.51" r="3.2"><title>Chad</title></circle>
<circle class="point" cx="601.03" cy="290.97" r="3.2"><title>Chile</title></circle>
<circle class="point" cx="606.82" cy="265.44" r="3.2"><title>China</title></circle>
<circle class="point" cx="543.55" cy="314.51" r="3.2"><title>Colombia</title></circle>
<circle class="point" cx="606.10" cy="307.27" r="3.2"><title>Costa Rica</title></circle>
<circle class="point" cx="634.70" cy="277.58" r="3.2"><title>Czech Republic</title></circle>
<circle class="point" cx="235.10" cy="320.26" r="3.2"><title>Democratic Republic of Congo</title></circle>
<circle class="point" cx="631.44" cy="271.54" r="3.2"><title>Denmark</title></circle>
<circle class="point" cx="517.60" cy="354.83" r="3.2"><title>Dominican Republic</title></circle>
<circle class="point" cx="583.71" cy="363.49" r="3.2"><title>Ecuador</title></circle>
<circle class="point" cx="420.57" cy="299.80" r="3.2"><title>Egypt</title></circle>
<circle class="point" cx="456.44" cy="292.35" r="3.2"><title>Ethiopia</title></circle>
<circle class="point" cx="476.32" cy="237.38" r="3.2"><title>Fiji</title></circle>
<circle class="point" cx="650.71" cy="326.90" r="3.2"><title>Finland</title></circle>
<circle class="point" cx="636.11" cy="284.40" r="3.2"><title>France</title></circle>
<circle class="point" cx="631.86" cy="272.23" r="3.2"><title>Germany</title></circle>
<circle class="point" cx="380.04" cy="315.91" r="3.2"><title>Ghana</title></circle>
<circle class="point" cx="626.09" cy="273.02" r="3.2"><title>Great Britain</title></circle>
<circle class="point" cx="619.91" cy="299.31" r="3.2"><title>Greece</title></circle>
<circle class="point" cx="509.61" cy="296.20" r="3.2"><title>Honduras</title></circle>
<circle class="point" cx="606.72" cy="257.95" r="3.2"><title>Hungary</title></circle>
<circle class="point" cx="445.48" cy="318.35" r="3.2"><title>India</title></circle>
<circle class="point" cx="579.16" cy="250.08" r="3.2"><title>Indonesia</title></circle>
<circle class="point" cx="424.18" cy="317.05" r="3.2"><title>Iran</title></circle>
<circle class="point" cx="404.51" cy="326.07" r="3.2"><title>Iraq</title></circle>
<circle class="point" cx="667.92" cy="308.94" r="3.2"><title>Ireland</title></circle>
<circle class="point" cx="570.15" cy="282.27" r="3.2"><title>Israel</title></circle>
<circle class="point" cx="656.41" cy="293.06" r="3.2"><title>Italy</title></circle>
<circle class="point" cx="530.42" cy="225.33" r="3.2"><title>Jamaica</title></circle>
<circle class="point" cx="719.54" cy="344.94" r="3.2"><title>Japan</title></circle>
<circle class="point" cx="373.98" cy="245.47" r="3.2"><title>Jordan</title></circle>
<circle class="point" cx="486.29" cy="260.54" r="3.2"><title>Kazakhstan</title></circle>
<circle class="point" cx="368.15" cy="301.66" r="3.2"><title>Kenya</title></circle>
<circle class="point" cx="454.45" cy="226.61" r="3.2"><title>Kiribati</title></circle>
<circle class="point" cx="557.15" cy="216.08" r="3.2"><title>Kuwait</title></circle>
<circle class="point" cx="473.97" cy="294.91" r="3.2"><title>Kyrgyzstan</title></circle>
<circle class="point" cx="541.57" cy="214.28" r="3.2"><title>Laos</title></circle>
<circle class="point" cx="611.82" cy="292.62" r="3.2"><title>Latvia</title></circle>
<circle class="point" cx="412.64" cy="230.74" r="3.2"><title>Lebanon</title></circle>
<circle class="point" cx="363.06" cy="344.14" r="3.2"><title>Libya</title></circle>
<circle class="point" cx="605.38" cy="248.55" r="3.2"><title>Luxembourg</title></circle>
<circle class="point" cx="583.92" cy="242.07" r="3.2"><title>Malaysia</title></circle>
<circle class="point" cx="504.62" cy="245.73" r="3.2"><title>Maldives</title></circle>
<circle class="point" cx="534.40" cy="252.71" r="3.2"><title>Mauritius</title></circle>
<circle class="point" cx="541.43" cy="231.30" r="3.2"><title>Mexico</title></circle>
<circle class="point" cx="557.46" cy="392.83" r="3.2"><title>Mongolia</title></circle>
<circle class="point" cx="408.17" cy="304.34" r="3.2"><title>Morocco</title></circle>
<circle class="point" cx="537.90" cy="428.73" r="3.2"><title>Myanmar</title></circle>
<circle class="point" cx="353.63" cy="325.15" r="3.2"><title>Nepal</title></circle>
<circle class="point" cx="614.72" cy="260.97" r="3.2"><title>Netherlands</title></circle>
<circle class="point" cx="211.78" cy="192.87" r="3.2"><title>Nigeria</title></circle>
<circle class="point" cx="660.65" cy="302.13" r="3.2"><title>Norway</title></circle>
<circle class="point" cx="554.98" cy="227.25" r="3.2"><title>Oman</title></circle>
<circle class="point" cx="303.10" cy="281.74" r="3.2"><title>Pakistan</title></circle>
<circle class="point" cx="643.78" cy="318.00" r="3.2"><title>Panama</title></circle>
<circle class="point" cx="541.49" cy="259.58" r="3.2"><title>Papua New Guinea</title></circle>
<circle class="point" cx="541.86" cy="259.44" r="3.2"><title>Paraguay</title></circle>
<circle class="point" cx="537.65" cy="324.42" r="3.2"><title>Peru</title></circle>
<circle class="point" cx="553.27" cy="280.86" r="3.2"><title>Philippines</title></circle>
<circle class="point" cx="572.23" cy="221.15" r="3.2"><title>Poland</title></circle>
<circle class="point" cx="651.47" cy="303.87" r="3.2"><title>Portugal</title></circle>
<circle class="point" cx="586.22" cy="273.15" r="3.2"><title>Romania</title></circle>
<circle class="point" cx="518.91" cy="319.99" r="3.2"><title>Russia</title></circle>
<circle class="point" cx="274.08" cy="196.10" r="3.2"><title>Rwanda</title></circle>
<circle class="point" cx="618.82" cy="280.80" r="3.2"><title>Samoa</title></circle>
<circle class="point" cx="554.70" cy="312.71" r="3.2"><title>Saudi Arabia</title></circle>
<circle class="point" cx="714.89" cy="355.64" r="3.2"><title>Singapore</title></circle>
<circle class="point" cx="645.03" cy="281.32" r="3.2"><title>Slovakia</title></circle>
<circle class="point" cx="558.93" cy="227.21" r="3.2"><title>Solomon Islands</title></circle>
<circle class="point" cx="449.21" cy="295.47" r="3.2"><title>South Africa</title></circle>
<circle class="point" cx="738.65" cy="365.83" r="3.2"><title>South Korea</title></circle>
<circle class="point" cx="636.51" cy="275.57" r="3.2"><title>Spain</title></circle>
<circle class="point" cx="492.87" cy="258.98" r="3.2"><title>Sri Lanka</title></circle>
<circle class="point" cx="298.10" cy="293.46" r="3.2"><title>Sudan</title></circle>
<circle class="point" cx="633.83" cy="277.87" r="3.2"><title>Sweden</title></circle>
<circle class="point" cx="651.89" cy="296.09" r="3.2"><title>Switzerland</title></circle>
<circle class="point" cx="208.32" cy="272.20" r="3.2"><title>Syria</title></circle>
<circle class="point" cx="425.90" cy="367.91" r="3.2"><title>Tanzania</title></circle>
<circle class="point" cx="605.08" cy="282.98" r="3.2"><title>Thailand</title></circle>
<circle class="point" cx="481.56" cy="154.80" r="3.2"><title>Timor Leste</title></circle>
<circle class="point" cx="621.07" cy="325.15" r="3.2"><title>Tonga</title></circle>
<circle class="point" cx="450.24" cy="421.62" r="3.2"><title>Turkey</title></circle>
<circle class="point" cx="278.98" cy="230.60" r="3.2"><title>Uganda</title></circle>
<circle class="point" cx="481.15" cy="212.28" r="3.2"><title>Ukraine</title></circle>
<circle class="point" cx="582.07" cy="229.28" r="3.2"><title>United Arab Emirates</title></circle>
<circle class="point" cx="642.97" cy="287.27" r="3.2"><title>United States of America</title></circle>
<circle class="point" cx="577.17" cy="305.40" r="3.2"><title>Uruguay</title></circle>
<circle class="point" cx="407.50" cy="433.72" r="3.2"><title>Uzbekistan</title></circle>
<circle class="point" cx="596.79" cy="298.00" r="3.2"><title>Vanuatu</title></circle>
<circle class="point" cx="487.98" cy="282.65" r="3.2"><title>Venezuela</title></circle>
<circle class="point" cx="592.13" cy="322.44" r="3.2"><title>Vietnam</title></circle>
<circle class="point" cx="257.05" cy="309.34" r="3.2"><title>Yemen</title></circle>
<circle class="point" cx="394.89" cy="245.86" r="3.2"><title>Zambia</title></circle>
<circle class="point" cx="347.99" cy="314.77" r="3.2"><title>Zimbabwe</title></circle>
</svg>